<mxfile host="app.diagrams.net" modified="2020-07-21T18:00:49.021Z" agent="5.0 (Macintosh; Intel Mac OS X 10_15_5) AppleWebKit/537.36 (KHTML, like Gecko) Chrome/83.0.4103.116 Safari/537.36" etag="-WfUrYel9pEAAKIrZE-W" version="13.4.9" type="github">
  <diagram id="rqZdOOfoHOuq6Q5m792f" name="Page-1">
    <mxGraphModel dx="2066" dy="1105" grid="1" gridSize="10" guides="1" tooltips="1" connect="1" arrows="1" fold="1" page="1" pageScale="1" pageWidth="827" pageHeight="1169" math="0" shadow="0">
      <root>
        <mxCell id="0" />
        <mxCell id="1" parent="0" />
        <mxCell id="Cxc8kqA7QJ2XeSgn4g5_-1" value="" style="shape=table;html=1;whiteSpace=wrap;startSize=0;container=1;collapsible=0;childLayout=tableLayout;" vertex="1" parent="1">
          <mxGeometry x="480" y="300" width="340" height="200" as="geometry" />
        </mxCell>
        <mxCell id="Cxc8kqA7QJ2XeSgn4g5_-2" value="" style="shape=partialRectangle;html=1;whiteSpace=wrap;collapsible=0;dropTarget=0;pointerEvents=0;fillColor=none;top=0;left=0;bottom=0;right=0;points=[[0,0.5],[1,0.5]];portConstraint=eastwest;" vertex="1" parent="Cxc8kqA7QJ2XeSgn4g5_-1">
          <mxGeometry width="340" height="40" as="geometry" />
        </mxCell>
        <mxCell id="Cxc8kqA7QJ2XeSgn4g5_-3" value="Process" style="shape=partialRectangle;html=1;whiteSpace=wrap;connectable=0;overflow=hidden;fillColor=none;top=0;left=0;bottom=0;right=0;" vertex="1" parent="Cxc8kqA7QJ2XeSgn4g5_-2">
          <mxGeometry width="113" height="40" as="geometry" />
        </mxCell>
        <mxCell id="Cxc8kqA7QJ2XeSgn4g5_-4" value="Arrival Time" style="shape=partialRectangle;html=1;whiteSpace=wrap;connectable=0;overflow=hidden;fillColor=none;top=0;left=0;bottom=0;right=0;" vertex="1" parent="Cxc8kqA7QJ2XeSgn4g5_-2">
          <mxGeometry x="113" width="114" height="40" as="geometry" />
        </mxCell>
        <mxCell id="Cxc8kqA7QJ2XeSgn4g5_-5" value="Burst&lt;br&gt;Time" style="shape=partialRectangle;html=1;whiteSpace=wrap;connectable=0;overflow=hidden;fillColor=none;top=0;left=0;bottom=0;right=0;" vertex="1" parent="Cxc8kqA7QJ2XeSgn4g5_-2">
          <mxGeometry x="227" width="113" height="40" as="geometry" />
        </mxCell>
        <mxCell id="Cxc8kqA7QJ2XeSgn4g5_-6" value="" style="shape=partialRectangle;html=1;whiteSpace=wrap;collapsible=0;dropTarget=0;pointerEvents=0;fillColor=none;top=0;left=0;bottom=0;right=0;points=[[0,0.5],[1,0.5]];portConstraint=eastwest;" vertex="1" parent="Cxc8kqA7QJ2XeSgn4g5_-1">
          <mxGeometry y="40" width="340" height="40" as="geometry" />
        </mxCell>
        <mxCell id="Cxc8kqA7QJ2XeSgn4g5_-7" value="P1" style="shape=partialRectangle;html=1;whiteSpace=wrap;connectable=0;overflow=hidden;fillColor=#fff2cc;top=0;left=0;bottom=0;right=0;strokeColor=#d6b656;" vertex="1" parent="Cxc8kqA7QJ2XeSgn4g5_-6">
          <mxGeometry width="113" height="40" as="geometry" />
        </mxCell>
        <mxCell id="Cxc8kqA7QJ2XeSgn4g5_-8" value="0" style="shape=partialRectangle;html=1;whiteSpace=wrap;connectable=0;overflow=hidden;fillColor=#fff2cc;top=0;left=0;bottom=0;right=0;strokeColor=#d6b656;" vertex="1" parent="Cxc8kqA7QJ2XeSgn4g5_-6">
          <mxGeometry x="113" width="114" height="40" as="geometry" />
        </mxCell>
        <mxCell id="Cxc8kqA7QJ2XeSgn4g5_-9" value="7" style="shape=partialRectangle;html=1;whiteSpace=wrap;connectable=0;overflow=hidden;fillColor=#fff2cc;top=0;left=0;bottom=0;right=0;strokeColor=#d6b656;" vertex="1" parent="Cxc8kqA7QJ2XeSgn4g5_-6">
          <mxGeometry x="227" width="113" height="40" as="geometry" />
        </mxCell>
        <mxCell id="Cxc8kqA7QJ2XeSgn4g5_-10" value="" style="shape=partialRectangle;html=1;whiteSpace=wrap;collapsible=0;dropTarget=0;pointerEvents=0;fillColor=none;top=0;left=0;bottom=0;right=0;points=[[0,0.5],[1,0.5]];portConstraint=eastwest;" vertex="1" parent="Cxc8kqA7QJ2XeSgn4g5_-1">
          <mxGeometry y="80" width="340" height="40" as="geometry" />
        </mxCell>
        <mxCell id="Cxc8kqA7QJ2XeSgn4g5_-11" value="P2" style="shape=partialRectangle;html=1;whiteSpace=wrap;connectable=0;overflow=hidden;fillColor=#f8cecc;top=0;left=0;bottom=0;right=0;strokeColor=#b85450;" vertex="1" parent="Cxc8kqA7QJ2XeSgn4g5_-10">
          <mxGeometry width="113" height="40" as="geometry" />
        </mxCell>
        <mxCell id="Cxc8kqA7QJ2XeSgn4g5_-12" value="0" style="shape=partialRectangle;html=1;whiteSpace=wrap;connectable=0;overflow=hidden;fillColor=#f8cecc;top=0;left=0;bottom=0;right=0;strokeColor=#b85450;" vertex="1" parent="Cxc8kqA7QJ2XeSgn4g5_-10">
          <mxGeometry x="113" width="114" height="40" as="geometry" />
        </mxCell>
        <mxCell id="Cxc8kqA7QJ2XeSgn4g5_-13" value="4" style="shape=partialRectangle;html=1;whiteSpace=wrap;connectable=0;overflow=hidden;fillColor=#f8cecc;top=0;left=0;bottom=0;right=0;strokeColor=#b85450;" vertex="1" parent="Cxc8kqA7QJ2XeSgn4g5_-10">
          <mxGeometry x="227" width="113" height="40" as="geometry" />
        </mxCell>
        <mxCell id="Cxc8kqA7QJ2XeSgn4g5_-14" value="" style="shape=partialRectangle;html=1;whiteSpace=wrap;collapsible=0;dropTarget=0;pointerEvents=0;fillColor=none;top=0;left=0;bottom=0;right=0;points=[[0,0.5],[1,0.5]];portConstraint=eastwest;" vertex="1" parent="Cxc8kqA7QJ2XeSgn4g5_-1">
          <mxGeometry y="120" width="340" height="40" as="geometry" />
        </mxCell>
        <mxCell id="Cxc8kqA7QJ2XeSgn4g5_-15" value="P3" style="shape=partialRectangle;html=1;whiteSpace=wrap;connectable=0;overflow=hidden;fillColor=#e1d5e7;top=0;left=0;bottom=0;right=0;strokeColor=#9673a6;" vertex="1" parent="Cxc8kqA7QJ2XeSgn4g5_-14">
          <mxGeometry width="113" height="40" as="geometry" />
        </mxCell>
        <mxCell id="Cxc8kqA7QJ2XeSgn4g5_-16" value="0" style="shape=partialRectangle;html=1;whiteSpace=wrap;connectable=0;overflow=hidden;fillColor=#e1d5e7;top=0;left=0;bottom=0;right=0;strokeColor=#9673a6;" vertex="1" parent="Cxc8kqA7QJ2XeSgn4g5_-14">
          <mxGeometry x="113" width="114" height="40" as="geometry" />
        </mxCell>
        <mxCell id="Cxc8kqA7QJ2XeSgn4g5_-17" value="2" style="shape=partialRectangle;html=1;whiteSpace=wrap;connectable=0;overflow=hidden;fillColor=#e1d5e7;top=0;left=0;bottom=0;right=0;strokeColor=#9673a6;" vertex="1" parent="Cxc8kqA7QJ2XeSgn4g5_-14">
          <mxGeometry x="227" width="113" height="40" as="geometry" />
        </mxCell>
        <mxCell id="Cxc8kqA7QJ2XeSgn4g5_-18" value="" style="shape=partialRectangle;html=1;whiteSpace=wrap;collapsible=0;dropTarget=0;pointerEvents=0;fillColor=none;top=0;left=0;bottom=0;right=0;points=[[0,0.5],[1,0.5]];portConstraint=eastwest;" vertex="1" parent="Cxc8kqA7QJ2XeSgn4g5_-1">
          <mxGeometry y="160" width="340" height="40" as="geometry" />
        </mxCell>
        <mxCell id="Cxc8kqA7QJ2XeSgn4g5_-19" value="P4" style="shape=partialRectangle;html=1;whiteSpace=wrap;connectable=0;overflow=hidden;fillColor=#dae8fc;top=0;left=0;bottom=0;right=0;strokeColor=#6c8ebf;" vertex="1" parent="Cxc8kqA7QJ2XeSgn4g5_-18">
          <mxGeometry width="113" height="40" as="geometry" />
        </mxCell>
        <mxCell id="Cxc8kqA7QJ2XeSgn4g5_-20" value="0" style="shape=partialRectangle;html=1;whiteSpace=wrap;connectable=0;overflow=hidden;fillColor=#dae8fc;top=0;left=0;bottom=0;right=0;strokeColor=#6c8ebf;" vertex="1" parent="Cxc8kqA7QJ2XeSgn4g5_-18">
          <mxGeometry x="113" width="114" height="40" as="geometry" />
        </mxCell>
        <mxCell id="Cxc8kqA7QJ2XeSgn4g5_-21" value="5" style="shape=partialRectangle;html=1;whiteSpace=wrap;connectable=0;overflow=hidden;fillColor=#dae8fc;top=0;left=0;bottom=0;right=0;strokeColor=#6c8ebf;" vertex="1" parent="Cxc8kqA7QJ2XeSgn4g5_-18">
          <mxGeometry x="227" width="113" height="40" as="geometry" />
        </mxCell>
        <mxCell id="Cxc8kqA7QJ2XeSgn4g5_-67" value="&lt;font style=&quot;font-size: 18px&quot;&gt;Grantt Chart&lt;/font&gt;" style="text;html=1;align=center;verticalAlign=middle;resizable=0;points=[];autosize=1;" vertex="1" parent="1">
          <mxGeometry x="485" y="560" width="110" height="20" as="geometry" />
        </mxCell>
        <mxCell id="Cxc8kqA7QJ2XeSgn4g5_-68" value="P4" style="text;html=1;align=center;verticalAlign=middle;resizable=0;points=[];autosize=1;" vertex="1" parent="1">
          <mxGeometry x="480" y="650" width="30" height="20" as="geometry" />
        </mxCell>
        <mxCell id="Cxc8kqA7QJ2XeSgn4g5_-69" value="P3" style="text;html=1;align=center;verticalAlign=middle;resizable=0;points=[];autosize=1;" vertex="1" parent="1">
          <mxGeometry x="595" y="650" width="30" height="20" as="geometry" />
        </mxCell>
        <mxCell id="Cxc8kqA7QJ2XeSgn4g5_-70" value="P4" style="text;html=1;align=center;verticalAlign=middle;resizable=0;points=[];autosize=1;" vertex="1" parent="1">
          <mxGeometry x="640" y="650" width="30" height="20" as="geometry" />
        </mxCell>
        <mxCell id="Cxc8kqA7QJ2XeSgn4g5_-71" value="P1" style="text;html=1;align=center;verticalAlign=middle;resizable=0;points=[];autosize=1;" vertex="1" parent="1">
          <mxGeometry x="785" y="650" width="30" height="20" as="geometry" />
        </mxCell>
        <mxCell id="Cxc8kqA7QJ2XeSgn4g5_-47" value="" style="shape=table;html=1;whiteSpace=wrap;startSize=0;container=1;collapsible=0;childLayout=tableLayout;" vertex="1" parent="1">
          <mxGeometry x="485" y="600" width="510" height="40" as="geometry" />
        </mxCell>
        <mxCell id="Cxc8kqA7QJ2XeSgn4g5_-48" value="" style="shape=partialRectangle;html=1;whiteSpace=wrap;collapsible=0;dropTarget=0;pointerEvents=0;fillColor=none;top=0;left=0;bottom=0;right=0;points=[[0,0.5],[1,0.5]];portConstraint=eastwest;" vertex="1" parent="Cxc8kqA7QJ2XeSgn4g5_-47">
          <mxGeometry width="510" height="40" as="geometry" />
        </mxCell>
        <mxCell id="Cxc8kqA7QJ2XeSgn4g5_-49" value="" style="shape=partialRectangle;html=1;whiteSpace=wrap;connectable=0;overflow=hidden;fillColor=#f8cecc;top=0;left=0;bottom=0;right=0;strokeColor=#b85450;" vertex="1" parent="Cxc8kqA7QJ2XeSgn4g5_-48">
          <mxGeometry width="28" height="40" as="geometry" />
        </mxCell>
        <mxCell id="Cxc8kqA7QJ2XeSgn4g5_-50" value="" style="shape=partialRectangle;html=1;whiteSpace=wrap;connectable=0;overflow=hidden;fillColor=#f8cecc;top=0;left=0;bottom=0;right=0;strokeColor=#b85450;" vertex="1" parent="Cxc8kqA7QJ2XeSgn4g5_-48">
          <mxGeometry x="28" width="29" height="40" as="geometry" />
        </mxCell>
        <mxCell id="Cxc8kqA7QJ2XeSgn4g5_-51" value="" style="shape=partialRectangle;html=1;whiteSpace=wrap;connectable=0;overflow=hidden;fillColor=#f8cecc;top=0;left=0;bottom=0;right=0;strokeColor=#b85450;" vertex="1" parent="Cxc8kqA7QJ2XeSgn4g5_-48">
          <mxGeometry x="57" width="28" height="40" as="geometry" />
        </mxCell>
        <mxCell id="Cxc8kqA7QJ2XeSgn4g5_-52" value="" style="shape=partialRectangle;html=1;whiteSpace=wrap;connectable=0;overflow=hidden;fillColor=#f8cecc;top=0;left=0;bottom=0;right=0;strokeColor=#b85450;" vertex="1" parent="Cxc8kqA7QJ2XeSgn4g5_-48">
          <mxGeometry x="85" width="28" height="40" as="geometry" />
        </mxCell>
        <mxCell id="Cxc8kqA7QJ2XeSgn4g5_-53" value="" style="shape=partialRectangle;html=1;whiteSpace=wrap;connectable=0;overflow=hidden;fillColor=#e1d5e7;top=0;left=0;bottom=0;right=0;strokeColor=#9673a6;" vertex="1" parent="Cxc8kqA7QJ2XeSgn4g5_-48">
          <mxGeometry x="113" width="29" height="40" as="geometry" />
        </mxCell>
        <mxCell id="Cxc8kqA7QJ2XeSgn4g5_-54" value="" style="shape=partialRectangle;html=1;whiteSpace=wrap;connectable=0;overflow=hidden;fillColor=#e1d5e7;top=0;left=0;bottom=0;right=0;strokeColor=#9673a6;" vertex="1" parent="Cxc8kqA7QJ2XeSgn4g5_-48">
          <mxGeometry x="142" width="28" height="40" as="geometry" />
        </mxCell>
        <mxCell id="Cxc8kqA7QJ2XeSgn4g5_-55" value="" style="shape=partialRectangle;html=1;whiteSpace=wrap;connectable=0;overflow=hidden;fillColor=#dae8fc;top=0;left=0;bottom=0;right=0;strokeColor=#6c8ebf;" vertex="1" parent="Cxc8kqA7QJ2XeSgn4g5_-48">
          <mxGeometry x="170" width="28" height="40" as="geometry" />
        </mxCell>
        <mxCell id="Cxc8kqA7QJ2XeSgn4g5_-56" value="" style="shape=partialRectangle;html=1;whiteSpace=wrap;connectable=0;overflow=hidden;fillColor=#dae8fc;top=0;left=0;bottom=0;right=0;strokeColor=#6c8ebf;" vertex="1" parent="Cxc8kqA7QJ2XeSgn4g5_-48">
          <mxGeometry x="198" width="29" height="40" as="geometry" />
        </mxCell>
        <mxCell id="Cxc8kqA7QJ2XeSgn4g5_-57" value="" style="shape=partialRectangle;html=1;whiteSpace=wrap;connectable=0;overflow=hidden;fillColor=#dae8fc;top=0;left=0;bottom=0;right=0;strokeColor=#6c8ebf;" vertex="1" parent="Cxc8kqA7QJ2XeSgn4g5_-48">
          <mxGeometry x="227" width="28" height="40" as="geometry" />
        </mxCell>
        <mxCell id="Cxc8kqA7QJ2XeSgn4g5_-58" value="" style="shape=partialRectangle;html=1;whiteSpace=wrap;connectable=0;overflow=hidden;fillColor=#dae8fc;top=0;left=0;bottom=0;right=0;strokeColor=#6c8ebf;" vertex="1" parent="Cxc8kqA7QJ2XeSgn4g5_-48">
          <mxGeometry x="255" width="28" height="40" as="geometry" />
        </mxCell>
        <mxCell id="Cxc8kqA7QJ2XeSgn4g5_-59" value="" style="shape=partialRectangle;html=1;whiteSpace=wrap;connectable=0;overflow=hidden;fillColor=#dae8fc;top=0;left=0;bottom=0;right=0;strokeColor=#6c8ebf;" vertex="1" parent="Cxc8kqA7QJ2XeSgn4g5_-48">
          <mxGeometry x="283" width="29" height="40" as="geometry" />
        </mxCell>
        <mxCell id="Cxc8kqA7QJ2XeSgn4g5_-60" value="" style="shape=partialRectangle;html=1;whiteSpace=wrap;connectable=0;overflow=hidden;fillColor=#fff2cc;top=0;left=0;bottom=0;right=0;strokeColor=#d6b656;" vertex="1" parent="Cxc8kqA7QJ2XeSgn4g5_-48">
          <mxGeometry x="312" width="28" height="40" as="geometry" />
        </mxCell>
        <mxCell id="Cxc8kqA7QJ2XeSgn4g5_-61" value="" style="shape=partialRectangle;html=1;whiteSpace=wrap;connectable=0;overflow=hidden;fillColor=#fff2cc;top=0;left=0;bottom=0;right=0;strokeColor=#d6b656;" vertex="1" parent="Cxc8kqA7QJ2XeSgn4g5_-48">
          <mxGeometry x="340" width="28" height="40" as="geometry" />
        </mxCell>
        <mxCell id="Cxc8kqA7QJ2XeSgn4g5_-62" value="" style="shape=partialRectangle;html=1;whiteSpace=wrap;connectable=0;overflow=hidden;fillColor=#fff2cc;top=0;left=0;bottom=0;right=0;strokeColor=#d6b656;" vertex="1" parent="Cxc8kqA7QJ2XeSgn4g5_-48">
          <mxGeometry x="368" width="29" height="40" as="geometry" />
        </mxCell>
        <mxCell id="Cxc8kqA7QJ2XeSgn4g5_-63" value="" style="shape=partialRectangle;html=1;whiteSpace=wrap;connectable=0;overflow=hidden;fillColor=#fff2cc;top=0;left=0;bottom=0;right=0;strokeColor=#d6b656;" vertex="1" parent="Cxc8kqA7QJ2XeSgn4g5_-48">
          <mxGeometry x="397" width="28" height="40" as="geometry" />
        </mxCell>
        <mxCell id="Cxc8kqA7QJ2XeSgn4g5_-64" value="" style="shape=partialRectangle;html=1;whiteSpace=wrap;connectable=0;overflow=hidden;fillColor=#fff2cc;top=0;left=0;bottom=0;right=0;strokeColor=#d6b656;" vertex="1" parent="Cxc8kqA7QJ2XeSgn4g5_-48">
          <mxGeometry x="425" width="28" height="40" as="geometry" />
        </mxCell>
        <mxCell id="Cxc8kqA7QJ2XeSgn4g5_-65" value="" style="shape=partialRectangle;html=1;whiteSpace=wrap;connectable=0;overflow=hidden;fillColor=#fff2cc;top=0;left=0;bottom=0;right=0;strokeColor=#d6b656;" vertex="1" parent="Cxc8kqA7QJ2XeSgn4g5_-48">
          <mxGeometry x="453" width="29" height="40" as="geometry" />
        </mxCell>
        <mxCell id="Cxc8kqA7QJ2XeSgn4g5_-66" value="" style="shape=partialRectangle;html=1;whiteSpace=wrap;connectable=0;overflow=hidden;fillColor=#fff2cc;top=0;left=0;bottom=0;right=0;strokeColor=#d6b656;" vertex="1" parent="Cxc8kqA7QJ2XeSgn4g5_-48">
          <mxGeometry x="482" width="28" height="40" as="geometry" />
        </mxCell>
      </root>
    </mxGraphModel>
  </diagram>
</mxfile>
